<?xml version="1.0" encoding="UTF-8"?><!DOCTYPE svg PUBLIC "-//W3C//DTD SVG 1.1//EN" "http://www.w3.org/Graphics/SVG/1.1/DTD/svg11.dtd"><svg xmlns="http://www.w3.org/2000/svg" xmlns:xlink="http://www.w3.org/1999/xlink" version="1.1" id="Layer_1" x="0px" y="0px" viewBox="0 0 151 151" xml:space="preserve"><circle fill="#3EB9E3" cx="75.5" cy="75.5" r="75.1"/><path fill="#F0582F" d="M127.6 38.1H23.4c-2.6 0-4.7 2.1-4.7 4.7v68.8c0 2.6 2.1 4.7 4.7 4.7h104.2c2.6 0 4.7-2.1 4.7-4.7V42.8c0-2.6-2.1-4.7-4.7-4.7z"/><path fill="#F1F3F7" d="M60.5 38.1v-6.5c0-.6.5-1 1-1h28c.6 0 1 .5 1 1v6.5h5.6v-6.5c0-3.6-3-6.6-6.6-6.6h-28c-3.6 0-6.6 3-6.6 6.6v6.5h5.6z"/><path fill="#333842" d="M38.4 38.1h5.7v78.2h-5.7z"/><path fill="#333842" d="M107 38.1h5.7v78.2H107z"/><metadata><rdf:RDF xmlns:rdf="http://www.w3.org/1999/02/22-rdf-syntax-ns#" xmlns:rdfs="http://www.w3.org/2000/01/rdf-schema#" xmlns:dc="http://purl.org/dc/elements/1.1/"><rdf:Description about="https://iconscout.com/legal#licenses" dc:publisher="Iconscout" dc:date="2018-02-21" dc:format="image/svg+xml" dc:language="en"><dc:creator><rdf:Bag><rdf:li>Pro Symbols</rdf:li></rdf:Bag></dc:creator></rdf:Description></rdf:RDF></metadata></svg>