<?xml version="1.0" encoding="UTF-8"?><!DOCTYPE svg PUBLIC "-//W3C//DTD SVG 1.1//EN" "http://www.w3.org/Graphics/SVG/1.1/DTD/svg11.dtd"><svg xmlns="http://www.w3.org/2000/svg" xmlns:xlink="http://www.w3.org/1999/xlink" version="1.1" id="Layer_1" x="0px" y="0px" viewBox="0 0 151 151" xml:space="preserve"><circle fill="#FF553E" cx="75.5" cy="75.5" r="75.1"/><path fill="#74594E" d="M102 57.5H49V33.7c0-4.6 3.7-8.3 8.3-8.3h36.5c4.6 0 8.3 3.7 8.3 8.3v23.8zm-47.3-5.8h41.5v-18c0-1.4-1.1-2.5-2.5-2.5H57.3c-1.4 0-2.5 1.1-2.5 2.5v18z"/><path fill="#886C60" d="M133 45.4c0-2.9-2.3-5.2-5.2-5.2H23.2c-2.9 0-5.2 2.3-5.2 5.2v31.1h115V45.4z"/><path fill="#74594E" d="M19.5 76.5v44c0 2.8 2.3 5.1 5.1 5.1h101.9c2.8 0 5.1-2.3 5.1-5.1v-44H19.5z"/><path fill="#F8B517" d="M69.3 40.2h12.4v85.4H69.3z"/><metadata><rdf:RDF xmlns:rdf="http://www.w3.org/1999/02/22-rdf-syntax-ns#" xmlns:rdfs="http://www.w3.org/2000/01/rdf-schema#" xmlns:dc="http://purl.org/dc/elements/1.1/"><rdf:Description about="https://iconscout.com/legal#licenses" dc:publisher="Iconscout" dc:date="2018-02-22" dc:format="image/svg+xml" dc:language="en"><dc:creator><rdf:Bag><rdf:li>Pro Symbols</rdf:li></rdf:Bag></dc:creator></rdf:Description></rdf:RDF></metadata></svg>