<?xml version="1.0" encoding="UTF-8"?><!DOCTYPE svg PUBLIC "-//W3C//DTD SVG 1.1//EN" "http://www.w3.org/Graphics/SVG/1.1/DTD/svg11.dtd"><svg xmlns="http://www.w3.org/2000/svg" xmlns:xlink="http://www.w3.org/1999/xlink" version="1.1" id="Layer_1" x="0px" y="0px" viewBox="0 0 128 128" xml:space="preserve"><circle fill="#BED630" cx="64" cy="64" r="64"/><path fill="#ABC437" d="M128 64c0-2.8-.2-5.5-.5-8.1l-21.2-21.2-84.4 58.4 34.5 34.5c2.5.3 5 .5 7.6.5 35.3-.1 64-28.8 64-64.1z"/><path fill="#6A5868" d="M101.6 32.9H26.4c-3.9 0-7.1 3.2-7.1 7.1v47.7c0 3.9 3.2 7.1 7.1 7.1h75.1c3.9 0 7.1-3.2 7.1-7.1V40c.1-4-3.1-7.1-7-7.1z"/><path fill="#5A4A56" d="M108.7 53.7v3c0 3.9-3.2 7.1-7.1 7.1H26.4c-3.9 0-7.1-3.2-7.1-7.1v-3c0 3.9 3.2 7.1 7.1 7.1h75.1c4 0 7.2-3.2 7.2-7.1z"/><path fill="#5A4A56" d="M93.9 81.3V32.9H87v48.4c0 1.9 1.5 3.4 3.4 3.4s3.5-1.5 3.5-3.4z"/><path fill="#FFF" d="M94.5 76.5h-8.1c-1.8 0-3.3-1.5-3.3-3.3v-9.1c0-1.8 1.5-3.3 3.3-3.3h8.1c1.8 0 3.3 1.5 3.3 3.3v9.1c0 1.8-1.5 3.3-3.3 3.3z"/><path fill="#5A4A56" d="M87 64.6h6.8V73H87z"/><g><path fill="#5A4A56" d="M41 81.3V32.9h-6.8v48.4c0 1.9 1.5 3.4 3.4 3.4 1.8 0 3.4-1.5 3.4-3.4z"/><path fill="#FFF" d="M41.6 76.5h-8.1c-1.8 0-3.3-1.5-3.3-3.3v-9.1c0-1.8 1.5-3.3 3.3-3.3h8.1c1.8 0 3.3 1.5 3.3 3.3v9.1c0 1.8-1.5 3.3-3.3 3.3z"/><path fill="#5A4A56" d="M34.1 64.6h6.8V73h-6.8z"/></g><g><path fill="#5A4A56" d="M83.8 28.9h-4.4l-.3-.6-.6-1c-.4-.6-1-1.2-1.5-1.8-1.1-1.1-2.4-2.1-3.7-2.9-1.4-.8-2.9-1.4-4.4-1.8-.8-.2-1.6-.3-2.4-.5l-1.3-.1h-1.1c-.8 0-1.6.1-2.4.2-.8.1-1.6.3-2.4.5-1.6.4-3.1 1-4.4 1.8-1.4.8-2.6 1.8-3.7 2.9l-1.5 1.8-.6 1-.3.6h-4.4c-.6 0-1.2.5-1.2 1.2 0 .6.5 1.2 1.2 1.2h5c.1 0 .2 0 .3-.1l.5-.3 1.7-1c.6-.3 1.1-.6 1.7-.9 1.1-.5 2.3-1 3.4-1.4 2.3-.7 4.6-1.1 7-1.1h1l.8.1c.6 0 1.2.1 1.7.2 1.2.2 2.3.5 3.5.8 1.2.4 2.3.8 3.4 1.3.6.3 1.1.6 1.7.9l1.7 1 .5.3c.1.1.2.1.4.1h5c.6 0 1.2-.5 1.2-1.2s-.5-1.2-1.1-1.2z"/><g fill="#E5E8EC"><path d="M90.4 32.9H80.1v-4.7h6.8c2 0 3.6 1.6 3.6 3.6v1.1z"/><path d="M37.6 32.9h10.3v-4.7h-6.8c-2 0-3.6 1.6-3.6 3.6v1.1z"/></g></g><metadata><rdf:RDF xmlns:rdf="http://www.w3.org/1999/02/22-rdf-syntax-ns#" xmlns:rdfs="http://www.w3.org/2000/01/rdf-schema#" xmlns:dc="http://purl.org/dc/elements/1.1/"><rdf:Description about="https://iconscout.com/legal#licenses" dc:publisher="Iconscout" dc:date="2018-06-03" dc:format="image/svg+xml" dc:language="en"><dc:creator><rdf:Bag><rdf:li>Creative Stall</rdf:li></rdf:Bag></dc:creator></rdf:Description></rdf:RDF></metadata></svg>