<?xml version="1.0" encoding="UTF-8"?>
<!DOCTYPE svg PUBLIC "-//W3C//DTD SVG 1.1//EN" "http://www.w3.org/Graphics/SVG/1.1/DTD/svg11.dtd">
<svg xmlns="http://www.w3.org/2000/svg" xmlns:xlink="http://www.w3.org/1999/xlink" version="1.1" id="Layer_1" x="0px" y="0px" viewBox="0 0 256 256" enable-background="new 0 0 256 256" xml:space="preserve">
<g>
	<circle fill="#39B39B" cx="128" cy="128" r="127"/>
	<g>
		<g>
			<path fill="#F0C949" d="M101.9,76.6V67c0-3.5,2.8-6.3,6.3-6.3h39.6c3.5,0,6.3,2.8,6.3,6.3v9.6h6.5V67c0-7.1-5.8-12.8-12.8-12.8     h-39.6c-7.1,0-12.8,5.8-12.8,12.8v9.6H101.9z"/>
		</g>
		<path fill="#9C6D53" d="M205.7,131.1V75.6H50.3v55.5C100.5,149.1,155.5,149.1,205.7,131.1z"/>
		<path fill="#835C43" d="M50.3,131.1v62.8h155.4v-62.8C155.5,149.1,100.5,149.1,50.3,131.1z"/>
		<rect x="118.4" y="131.1" fill="#F0C949" width="19.2" height="27"/>
	</g>
</g>

	<metadata>
		<rdf:RDF xmlns:rdf="http://www.w3.org/1999/02/22-rdf-syntax-ns#" xmlns:rdfs="http://www.w3.org/2000/01/rdf-schema#" xmlns:dc="http://purl.org/dc/elements/1.1/">
			<rdf:Description about="https://admin.iconscout.com/legal#licenses" dc:title="18 briefcase work case shopping bag portfolio" dc:description="18 briefcase work case shopping bag portfolio" dc:publisher="Iconscout" dc:date="2017-05-08" dc:format="image/svg+xml" dc:language="en">
				<dc:creator>
					<rdf:Bag>
						<rdf:li>Creative Stall</rdf:li>
					</rdf:Bag>
				</dc:creator>
			</rdf:Description>
		</rdf:RDF>
    </metadata></svg>
