<svg id="SvgjsSvg1001" width="288" height="288" xmlns="http://www.w3.org/2000/svg" version="1.1" xmlns:xlink="http://www.w3.org/1999/xlink" xmlns:svgjs="http://svgjs.com/svgjs"><defs id="SvgjsDefs1002"></defs><g id="SvgjsG1008" transform="matrix(0.916700005531311,0,0,0.916700005531311,11.995412826538086,11.995199203491211)"><!--?xml version="1.0" encoding="UTF-8"?--><svg xmlns="http://www.w3.org/2000/svg" xmlns:xlink="http://www.w3.org/1999/xlink" version="1.1" id="Layer_1" x="0px" y="0px" viewBox="0 0 70 70" xml:space="preserve" width="288" height="288"><style type="text/css">.st0{fill:#E7E4F3;} .st1{fill:#2A3D4F;} .st2{fill:#FFCB48;} .st3{fill:#EB675E;} .st4{fill:#00A388;} .st5{fill:#4B6981;} .st6{fill:#8E613E;} .st7{fill:#D4C8BC;} .st8{fill:#FFD766;} .st9{fill:#FCDD48;} .st10{fill:#3C96D1;} .st11{fill:#7BBD91;} .st12{fill:none;stroke:#2A3D4F;stroke-width:2;stroke-linecap:round;stroke-linejoin:round;stroke-miterlimit:10;} .st13{fill:#EC763E;} .st14{fill:#FCDD40;} .st15{fill:#FCD350;} .st16{fill:#FFCB66;} .st17{fill:#7BC891;}</style><path class="st0 colorE7E4F3 svgShape" d="M52.78 12.2v35.97h-9.62c-.67 0-1.21.54-1.21 1.2V59H18.43c-.67 0-1.21-.54-1.21-1.2V12.2c0-.66.54-1.2 1.21-1.2h33.15c.66 0 1.2.54 1.2 1.2z" fill="#e7e4f3"></path><path class="st1 color2A3D4F svgShape" d="M41.95 60H18.43a2.208 2.208 0 0 1-2.21-2.2V12.2c0-1.213.99-2.2 2.21-2.2h33.15c1.213 0 2.2.987 2.2 2.2v35.97a1 1 0 0 1-1 1h-9.62c-.116 0-.21.09-.21.2V59a1 1 0 0 1-1 1zM18.43 12c-.117 0-.21.09-.21.2v45.6c0 .11.093.2.21.2h22.52v-8.63c0-1.213.991-2.2 2.21-2.2h8.62V12.2c0-.108-.092-.2-.2-.2H18.43z" fill="#2c3e50"></path><g fill="#000000" class="color000 svgShape"><path class="st17 color7BC891 svgShape" d="M52.78 48.17L41.95 59v-9.63c0-.66.54-1.2 1.21-1.2h9.62z" fill="#1abc9c"></path><path class="st1 color2A3D4F svgShape" d="M41.95 60a.999.999 0 0 1-1-1v-9.63c0-1.213.991-2.2 2.21-2.2h9.62a.999.999 0 0 1 .707 1.707l-10.83 10.83a1 1 0 0 1-.707.293zm1.21-10.83c-.116 0-.21.09-.21.2v7.216l7.416-7.416H43.16z" fill="#2c3e50"></path></g><g fill="#000000" class="color000 svgShape"><path class="st1 color2A3D4F svgShape" d="M30.986 28.328h-9.37a1 1 0 0 1-1-1v-9.37a1 1 0 0 1 1-1h9.37a1 1 0 0 1 1 1v9.37a1 1 0 0 1-1 1zm-8.37-2h7.37v-7.37h-7.37v7.37z" fill="#2c3e50"></path><path class="st1 color2A3D4F svgShape" d="M41.112 26.428c-.384.19-1.152.383-2.135.383-2.28 0-3.994-1.44-3.994-4.09 0-2.53 1.715-4.246 4.222-4.246 1.007 0 1.643.216 1.919.36l-.252.852c-.396-.192-.96-.336-1.631-.336-1.895 0-3.155 1.211-3.155 3.334 0 1.979 1.14 3.25 3.107 3.25.636 0 1.283-.132 1.703-.336l.216.829z" fill="#2c3e50"></path><path class="st1 color2A3D4F svgShape" d="M44.341 26.691l-2.638-8.084h1.128l1.258 3.983c.348 1.09.648 2.074.864 3.022h.024c.228-.935.564-1.955.924-3.01l1.367-3.995h1.115l-2.89 8.084H44.34z" fill="#2c3e50"></path><g fill="#000000" class="color000 svgShape"><path class="st1 color2A3D4F svgShape" d="M48.499 35.52h-27a1 1 0 1 1 0-2h27a1 1 0 1 1 0 2z" fill="#2c3e50"></path><path class="st1 color2A3D4F svgShape" d="M48.499 41.361h-27a1 1 0 1 1 0-2h27a1 1 0 1 1 0 2z" fill="#2c3e50"></path><path class="st1 color2A3D4F svgShape" d="M35.598 47.201H21.5a1 1 0 1 1 0-2h14.098a1 1 0 1 1 0 2z" fill="#2c3e50"></path><path class="st1 color2A3D4F svgShape" d="M35.598 53.042H21.5a1 1 0 1 1 0-2h14.098a1 1 0 1 1 0 2z" fill="#2c3e50"></path></g></g><metadata><rdf:rdf xmlns:rdf="http://www.w3.org/1999/02/22-rdf-syntax-ns#" xmlns:rdfs="http://www.w3.org/2000/01/rdf-schema#" xmlns:dc="http://purl.org/dc/elements/1.1/"><rdf:description about="https://iconscout.com/legal#licenses" dc:title="resume,cv,document,page,file" dc:description="resume,cv,document,page,file" dc:publisher="Iconscout" dc:date="2018-02-22" dc:format="image/svg+xml" dc:language="en"><dc:creator><rdf:bag><rdf:li>Dinosoft Labs</rdf:li></rdf:bag></dc:creator></rdf:description></rdf:rdf></metadata></svg></g></svg>